<svg xmlns:dc="http://purl.org/dc/elements/1.1/" xmlns:cc="http://creativecommons.org/ns#" xmlns:rdf="http://www.w3.org/1999/02/22-rdf-syntax-ns#" xmlns:svg="http://www.w3.org/2000/svg" xmlns="http://www.w3.org/2000/svg" xmlns:sodipodi="http://sodipodi.sourceforge.net/DTD/sodipodi-0.dtd" xmlns:inkscape="http://www.inkscape.org/namespaces/inkscape" width="100" height="100" viewBox="0 0 80 80" version="1.1" id="svg2" inkscape:version="0.48.2 r9819" sodipodi:docname="cow spotted no udder.svg">
  <metadata id="metadata24">
    <rdf:RDF>
      <cc:Work rdf:about="">
        <dc:format>image/svg+xml</dc:format>
        <dc:type rdf:resource="http://purl.org/dc/dcmitype/StillImage"/>
      </cc:Work>
    </rdf:RDF>
  </metadata>
  <defs id="defs22"/>
  <sodipodi:namedview pagecolor="#ffffff" bordercolor="#666666" borderopacity="1" objecttolerance="10" gridtolerance="10" guidetolerance="10" inkscape:pageopacity="0" inkscape:pageshadow="2" inkscape:window-width="1359" inkscape:window-height="480" id="namedview20" showgrid="false" inkscape:zoom="1.6635733" inkscape:cx="292.96537" inkscape:cy="84.875104" inkscape:window-x="0" inkscape:window-y="0" inkscape:window-maximized="0" inkscape:current-layer="svg2"/>
  <path style="fill:#020101;stroke:#020101;stroke-width:0.01063394" d="m 21.561305,5.4199028 c 1.043544,0.99817 2.177831,1.91694 2.858403,3.21003 0.397001,0.794 0.98683,1.6106902 0.884744,2.5408002 -0.204171,0.5558 -0.839372,0.68057 -1.293087,0.93012 0.476401,1.28174 0.952801,2.57483 1.293087,3.91329 1.406516,-0.9528 2.631546,-2.38201 2.858404,-4.12881 0.0794,-1.49726 -0.839373,-2.7903402 -1.724117,-3.9019502 -1.293087,-1.33845 -2.92646,-2.52946 -4.877434,-2.56348 z m -13.66816,0.29491 c -1.179658,0.52177 -1.497259,1.86023 -1.724116,3.0172 -0.442372,1.5539802 -0.102086,3.3007802 0.850715,4.6052102 0.805344,1.24772 2.1664884,1.91694 3.470919,2.5408 0.385657,-1.13428 0.862058,-2.23454 1.270401,-3.35749 -1.122944,-0.49908 -2.3479736,-0.82803 -3.27809,-1.6674 C 7.859116,10.285993 7.36003,9.4806428 7.428087,8.6185928 c -0.04537,-0.99818 0.306258,-1.93964 0.465058,-2.90378 z m 14.620961,5.6374102 c -2.155146,0.0113 -4.298948,0.35163 -6.465437,0.17014 -1.202344,-0.0567 -2.68826,-0.0907 -3.482261,0.98683 -1.622031,2.13246 -2.041717,4.94549 -1.97366,7.5657 -0.04537,1.8262 -0.0794,3.68643 -0.6351996,5.44457 1.1910006,0.11343 2.4046876,0.0567 3.5616606,0.37432 1.032201,0.3176 1.372488,1.47457 1.690088,2.382 0.487743,1.32712 0.113429,2.72229 0.03403,4.07209 1.610687,-0.82803 2.495431,-2.4614 3.561661,-3.84523 0.725944,-0.97549 1.826202,-1.51995 2.801689,-2.18918 1.644717,-1.10025 3.334804,-2.33663 4.242234,-4.15149 0.147457,-0.88474 -0.226857,-1.7468 -0.397,-2.60886 1.032201,0.034 1.576659,0.9528 2.257231,1.56532 0.794001,0.75997 1.860231,1.24772 2.971832,1.21369 1.508602,0.18148 2.915118,-0.7146 3.777176,-1.88292 0.294915,-0.38566 0.272229,-0.99817 -0.0794,-1.33846 -0.521772,-0.54446 -1.22503,-0.85071 -1.882916,-1.20234 -1.22503,-0.62386 -2.620204,-1.10026 -4.015377,-0.81669 -1.14563,0.24954 -2.302603,0.44237 -3.482261,0.34029 -0.215515,-1.61069 -0.623858,-3.22138 -1.247716,-4.72998 -0.294915,-0.51043 -0.544458,-1.30443 -1.236373,-1.3498 z m 45.388499,4.8037 c -0.675854,0.007 -1.355473,0.0752 -2.002017,0.13045 -4.196862,0.24954 -8.280296,1.23637 -12.420444,1.84888 -1.769488,0.2382 -3.561661,0.29492 -5.331149,0.45372 -4.548492,0.61251 -9.08564,-0.32894 -13.622788,-0.43103 0.2382,0.56714 0.612515,1.08892 0.771315,1.67874 -0.782658,2.18918 -3.391519,3.5957 -5.637407,2.84707 -1.38383,-0.24955 -2.438717,-1.29309 -3.368833,-2.27992 0.04537,0.82803 0.215515,1.76949 -0.272229,2.49543 -1.236373,1.81486 -3.017204,3.176 -4.877434,4.31029 -2.075746,1.15697 -2.983176,3.50495 -4.639235,5.11564 0.544458,1.06623 1.111602,2.13246 1.701431,3.176 2.336631,4.08343 4.389691,8.33701 6.12515,12.70402 0.431029,1.44054 0.192829,2.98317 0.419687,4.45774 0.2382,2.30261 0.918772,4.55984 0.828029,6.88513 0.04537,2.68826 -0.714601,5.29712 -1.429202,7.86061 -0.669229,2.31394 -1.894259,4.38969 -3.153318,6.42006 1.939631,0.5558 4.049405,0.51043 5.943665,-0.22686 0,-1.23637 -0.03403,-2.48408 0.02269,-3.7318 0.04537,-0.32894 -0.04537,-0.81669 0.294915,-1.0322 0.317601,-0.21552 0.691915,-0.3176 1.054887,-0.46506 -0.1588,-1.05489 -0.362972,-2.12112 -0.294915,-3.19869 0.192829,-2.83572 0.442372,-5.67143 1.111602,-8.4391 0.397,-1.4292 0.05671,-2.91511 -0.05671,-4.367 1.066229,-0.0454 2.132459,0.0567 3.198689,-0.0681 1.22503,-0.11343 2.382003,-0.57848 3.51629,-1.02086 0.759973,1.13429 1.474573,2.30261 2.200517,3.47092 1.644717,2.59752 3.380176,5.26309 4.038062,8.31433 0.272229,1.08891 0.170143,2.2232 0.158801,3.3348 -0.04537,1.65606 -0.238201,3.36883 -1.043545,4.85475 -0.328943,0.60117 -0.294914,1.3498 -0.680572,1.92829 -0.691915,0.80534 -1.406516,1.59934 -1.905602,2.55214 2.007688,0.86206 4.264919,0.38566 6.261265,-0.2382 0.442372,-0.36297 0.589829,-0.94145 0.850715,-1.4292 0.657886,-1.17966 -0.102086,-2.50677 -0.1588,-3.74315 0.510429,-0.12477 1.054887,-0.20417 1.531287,-0.44237 0.385658,-0.49908 0.03403,-1.16831 -0.03403,-1.71277 -1.134287,-4.25358 -2.393346,-8.48447 -3.289433,-12.8061 -0.3176,-1.4292 -0.725944,-2.83572 -0.816687,-4.29895 2.983176,-0.0681 6.000379,-0.28357 8.858783,-1.20235 3.51629,-1.14563 6.624237,-3.27808 9.505326,-5.558 1.100258,-0.8734 2.245888,-1.6674 3.266747,-2.62021 0.771315,0.68058 1.372487,1.51995 1.996345,2.32529 1.588002,2.26858 2.075745,5.1043 2.200517,7.81524 0.328943,4.77535 -0.487743,9.56204 -1.950974,14.08785 -0.419686,0.97548 -1.168316,1.7468 -1.871574,2.50677 0.238201,0.13612 0.476401,0.24955 0.714601,0.37432 -0.941458,0.69191 -1.905602,1.49726 -2.325288,2.6202 1.826202,0.89609 4.015376,0.80534 5.830235,-0.0794 -0.601172,-1.22503 -0.102085,-2.59752 0.283572,-3.8112 0.317601,-0.71461 0.964144,-1.23638 1.372488,-1.89426 0.05671,-0.77132 -0.238201,-1.49726 -0.351629,-2.24589 -0.238201,-1.13429 -0.02269,-2.29126 0.136114,-3.41421 0.283572,-1.88291 0.657887,-3.75449 1.247716,-5.56935 0.453715,-1.2704 1.38383,-2.35931 1.599345,-3.72046 -0.01134,-1.33846 -1.088916,-2.45006 -0.941459,-3.82255 0.124772,-2.71094 0.839373,-5.34249 1.406516,-7.96269 0.465058,-2.12112 0.998173,-4.26492 0.941459,-6.4541 0.02269,-1.985 -0.0794,-3.98134 -0.306258,-5.955 -0.260886,-2.32529 -0.5558,-4.66192 -1.417859,-6.8511 -0.442372,-1.02086 -1.020858,-2.0644 -2.019031,-2.63154 -0.928698,-0.69475 -2.04391,-0.85646 -3.170332,-0.84505 z m -60.573768,0.52461 c -0.139747,0.006 -0.280736,0.0213 -0.422522,0.0482 -1.406516,0.1588 -2.586174,1.05489 -3.686433,1.86023 -0.669229,0.6352 -1.417859,1.38383 -1.429202,2.382 2.268575,1.191 4.979521,1.47458 7.4409244,0.78266 0.294915,-0.0454 0.635201,-0.18149 0.748629,-0.4764 0.2268576,-1.29309 0.1588006,-2.60886 0.1701426,-3.90195 -0.9131006,-0.29775 -1.843305,-0.7346 -2.821539,-0.69475 z m 11.096164,2.24305 c 0.918909,-0.033 1.855977,0.25167 2.501103,0.92445 0.714601,0.4764 0.839372,1.48591 0.521772,2.23454 -0.578486,0.96415 -1.349802,1.84889 -2.313946,2.46141 -0.703258,0.41968 -1.281744,1.38383 -2.257231,1.00951 -0.998173,-0.26088 -2.166488,-0.46506 -2.801689,-1.36114 -0.362972,-1.46323 0.714601,-2.67692 1.576659,-3.70912 0.476401,-0.75997 1.270402,-1.30443 2.143803,-1.48592 0.206298,-0.0404 0.417474,-0.0661 0.629529,-0.0737 z m 55.120682,0.1985 c 0.1588,1.03221 0.487744,2.04172 0.918773,2.99452 1.134287,2.63155 1.54263,5.50129 1.769488,8.33701 0.306257,3.87926 -0.419687,7.70181 -0.82803,11.5357 -0.102086,1.24772 -0.533115,2.42738 -0.90743,3.61838 -0.306257,1.67874 -0.06806,3.74315 1.372488,4.8434 0.896087,-0.0794 1.576659,-1.00951 1.848888,-1.8262 0.453715,-2.12112 -1.848888,-3.58435 -1.485916,-5.67143 0.2382,-1.88292 0.6352,-3.74315 0.703258,-5.63741 0.03403,-4.72998 0.294914,-9.58473 -1.111602,-14.17859 -0.499086,-1.46323 -1.134287,-2.94915 -2.279917,-4.01538 z m -24.636716,1.37816 c 0.434065,-0.0139 0.762808,0.3091 1.100259,0.52745 0.646543,0.44237 1.417858,0.6352 2.132459,0.94145 1.06623,0.37432 2.223203,0.46506 3.244062,0.96415 0.873401,0.40834 1.950973,0.81669 2.279917,1.81486 0.362971,1.14563 -0.487744,2.17783 -1.134287,3.02854 -0.476401,0.49909 -0.998173,1.22503 -1.780831,1.03221 -0.725944,1.05488 -2.109774,0.88474 -3.19869,0.80534 -1.644716,-0.14746 -3.448233,-0.24954 -4.764006,-1.38383 -0.737286,-0.56714 -1.191001,-1.63337 -0.850715,-2.52946 0.226857,-0.77132 0.737286,-1.46323 0.725944,-2.3026 -0.499087,-0.60118 -1.293088,-0.81669 -1.996346,-1.08892 -1.054887,-0.34029 -2.019031,-0.96414 -2.779003,-1.76949 2.279917,-0.0113 4.559834,-0.0454 6.828408,-0.0113 0.06664,-0.017 0.13082,-0.0264 0.192829,-0.0284 z m -11.033778,4.21388 c 0.558881,0.002 1.115855,0.0425 1.664567,0.10209 0.918772,0.18148 2.053059,0.43102 2.472745,1.39517 0.499087,0.85071 0.283572,1.88292 0.328944,2.82437 -0.03403,0.52178 0.05671,1.13429 -0.362972,1.54263 -0.521772,0.49909 -1.054887,0.99818 -1.644716,1.42921 -0.918773,0.7146 -2.189175,0.74863 -3.051233,1.588 -1.156973,1.04354 -2.325288,2.24589 -2.654232,3.82255 -0.374314,2.0644 0.51043,4.1288 1.860231,5.66009 0.964144,1.10026 1.81486,2.4614 1.690088,3.99269 0.170143,1.12294 -0.442372,2.08709 -1.06623,2.94915 -0.431029,-0.23821 -0.90743,-0.77132 -1.429202,-0.44238 -1.62203,0.65789 -3.334804,1.28175 -5.104292,1.07758 -0.691915,-0.034 -1.361144,-0.2382 -2.041716,-0.24955 -0.74863,0.17015 -1.451888,0.4764 -2.155146,0.74863 -0.136114,-1.16831 -0.147457,-2.33663 -0.408343,-3.48226 -1.077573,-3.36883 -2.983175,-6.38604 -4.480434,-9.56204 -0.896087,-1.6674 -1.928289,-3.27809 -2.699604,-5.00221 -0.0794,-0.22685 -0.192829,-0.48774 -0.05671,-0.70325 0.521772,-0.81669 1.156973,-1.56532 1.724116,-2.35932 0.691915,-1.0322 1.871574,-1.54263 2.835718,-2.27992 1.191002,-0.78266 2.121117,-1.91694 3.334804,-2.66557 0.862058,-0.14746 1.690088,0.20417 2.472746,0.51043 0.601172,0.24954 0.98683,0.80534 1.508602,1.16831 0.884744,0.27223 1.780831,-0.22686 2.597517,-0.53311 0.703258,-0.27223 1.168316,-0.93012 1.905603,-1.13429 0.893251,-0.29775 1.827687,-0.40054 2.759153,-0.397 z m -27.461091,1.25906 c -0.4580146,7.7e-4 -0.9045936,0.0695 -1.2618936,0.36297 -1.2477164,1.3498 -1.3724884,3.32346 -1.1796594,5.05892 1.1229444,0.51043 2.087088,1.37249 3.323461,1.588 0.918773,0.034 1.882917,0.0567 2.756318,-0.28357 0.759972,-0.41969 0.771315,-1.47457 0.941458,-2.2232 0,-1.04355 -0.113428,-2.15515 -0.578486,-3.10795 -0.612515,-1.00951 -1.882917,-1.22503 -2.949146,-1.3498 -0.332488,-0.005 -0.695818,-0.046 -1.052052,-0.0454 z m 52.418243,0.39133 c 1.151923,0.0124 2.142386,0.88474 3.124961,1.40084 1.202345,0.19283 2.416032,0.38566 3.618376,0.61252 0.66923,0.11343 1.134287,0.69191 1.531288,1.191 0.181486,0.99817 -0.170143,2.08709 -0.896087,2.80169 -0.816687,1.0322 -2.268574,1.62203 -2.506774,3.03989 -0.03403,0.94146 0.192828,1.87157 0.192828,2.81303 0.06806,1.3498 -0.102085,2.71095 -0.385657,4.02672 -0.862058,-0.72595 -1.588002,-1.59935 -2.279917,-2.48409 -0.487744,0.034 -1.020859,0.0794 -1.406516,0.40834 -1.531288,1.22503 -2.971833,2.59752 -4.684606,3.58435 -0.0794,-1.0322 -0.192829,-2.15515 0.272229,-3.11929 0.941458,-1.07757 2.631546,-1.24772 3.323461,-2.57483 0.499086,-1.29309 0.09074,-2.6996 -0.192829,-4.00403 -0.124771,-0.79401 -1.032201,-1.06623 -1.429202,-1.70144 -0.839372,-0.17014 -0.850715,-1.16831 -0.941458,-1.84888 -0.226857,-1.61069 0.612515,-3.45958 2.155146,-4.09478 0.17156,-0.0369 0.340197,-0.0528 0.504757,-0.051 z m -16.135234,14.21829 c 0.141765,-10e-4 0.286408,0.007 0.431029,0.0227 1.383831,-0.0794 2.699604,0.61252 3.629719,1.588 0.794001,0.97549 1.644716,1.92829 2.336632,2.98318 0.340286,0.58983 0.499086,1.25906 0.737286,1.88292 -3.83389,2.01903 -8.268953,2.5408 -12.545215,2.382 -0.09074,-0.90743 -0.294915,-1.80352 -0.362972,-2.71095 -0.02269,-0.98683 0.408343,-1.88291 0.725944,-2.79034 0.260886,-0.7146 0.816686,-1.28175 1.406516,-1.73546 1.038227,-0.84292 2.270668,-1.612 3.641061,-1.62203 z m 17.967108,1.79217 c -0.952801,0.53311 -1.724116,1.31577 -2.382003,2.16649 1.38383,1.16831 2.245889,2.79034 3.51629,4.0494 0.975487,1.25906 1.553974,2.83572 1.826202,4.38969 0.102086,1.99635 -0.170143,3.9927 -0.4764,5.95501 -0.260886,1.6674 -0.918773,3.23272 -1.576659,4.77535 -0.306258,0.80534 -0.930116,1.44055 -1.38383,2.15515 0.646543,0.14745 1.293087,0.28357 1.962316,0.29491 0.782658,-2.08709 1.202345,-4.26492 1.690088,-6.43141 0.680572,-2.99452 0.567144,-6.10246 0.260886,-9.14235 -0.181486,-1.588 -0.385658,-3.21003 -1.088916,-4.67326 -0.567143,-1.31578 -1.485916,-2.41604 -2.347974,-3.53898 z" id="path4" inkscape:connector-curvature="0"/>
</svg>